<svg width="202" height="132" viewBox="0 0 202 132" fill="none" xmlns="http://www.w3.org/2000/svg">
<rect x="2" y="2" width="198" height="128" rx="13" fill="white" stroke="#C4C4C4" stroke-width="4"/>
<path d="M184.946 128.995H16.9247C13.4969 128.995 10.2094 127.667 7.78556 125.304C5.36171 122.941 4 119.736 4 116.394L4 63.388H13.3112L15.4114 58.4318H20.1128L22.2077 63.367H40.5285V59.6131L42.1656 63.3933H51.676L53.3132 59.5501V63.3828H98.8351V55.2764H99.6968C100.311 55.2974 100.488 55.3499 100.488 56.3475V63.3933H124.038V61.5084C126.446 62.7002 129.284 63.3985 132.294 63.3985L132.806 63.3933H132.779H142.688L144.809 58.4581H149.511L151.584 63.3933H170.68V58.6996L173.567 63.3933H188.84V32.396H173.723V36.0554L171.607 32.396H156.065V36.0554L154.121 32.396H133.134C129.954 32.2393 126.786 32.8773 123.931 34.2493L124.044 34.2021V32.396H109.568V34.2021C107.816 32.8557 105.603 32.2116 103.38 32.4012H103.413H50.5128L46.9639 40.4078L43.3181 32.4012H26.656V36.0606L24.8196 32.4012H10.6024L4.01616 47.1018V15.6005C4.01616 12.2587 5.37786 9.05367 7.80172 6.69061C10.2256 4.32755 13.513 3 16.9409 3H184.962C188.39 3 191.677 4.32755 194.101 6.69061C196.525 9.05367 197.887 12.2587 197.887 15.6005V70.6228H187.8C187.639 70.6123 187.445 70.6123 187.256 70.6123C184.919 70.6123 182.749 71.2948 180.939 72.4656L180.982 72.4394V70.6228H166.065C163.735 70.4973 161.429 71.143 159.522 72.4551L159.554 72.4341V70.6176H132.919V72.4341C130.738 71.2353 128.276 70.6093 125.772 70.6176H125.562H125.573H108.001V72.4341C105.705 71.0004 102.981 70.3624 100.268 70.6228L100.316 70.6176H80.6543L76.1522 75.3638L71.9409 70.6176H42.5695V101.636H71.3916L76.0284 96.8162L80.3958 101.636H98.162V94.3748H100.639C103.021 94.4656 105.397 94.0778 107.619 93.2355L107.5 93.2775V101.646H122.148V93.5663H122.854C123.748 93.5663 123.839 93.5978 123.839 94.4798V101.652H168.354L168.898 101.662C171.45 101.662 173.831 100.917 175.813 99.6408L175.764 99.667V101.652H189.884L190.558 101.662C193.202 101.662 195.717 101.132 198 100.171L197.876 100.218V116.399C197.876 119.741 196.514 122.946 194.091 125.309C191.667 127.672 188.379 129 184.951 129L184.946 128.995ZM117.657 97.2887H112.174V75.054H124.755C127.027 74.8487 129.314 75.2213 131.395 76.1356L131.308 76.104C132.994 77.0071 134.12 78.7292 134.12 80.7032L134.109 81.055V81.0393L134.114 81.2388C134.114 83.7904 132.536 85.985 130.274 86.9405L130.231 86.9563C131.314 87.3343 132.219 87.98 132.892 88.8148L132.903 88.8253C133.663 90.0524 133.981 91.4918 133.807 92.9152L133.813 92.8837V97.2834H128.341V94.5008C128.6 92.9858 128.288 91.4306 127.463 90.1221L127.48 90.1484C126.911 89.7277 126.261 89.4238 125.569 89.255C124.876 89.0863 124.156 89.0562 123.451 89.1666L123.484 89.1613H117.657V97.2834V97.2887ZM117.657 79.6479V84.6409H124.281C125.216 84.7251 126.157 84.5619 127.006 84.1684L126.973 84.1841C127.32 83.966 127.605 83.6667 127.802 83.3137C128 82.9606 128.104 82.565 128.104 82.1628L128.099 82.042V82.0473C128.126 81.646 128.035 81.2456 127.838 80.8924C127.64 80.5393 127.344 80.248 126.984 80.0522L126.973 80.047C126.156 79.6906 125.258 79.546 124.367 79.6269H124.388L117.657 79.6479ZM69.0544 97.2834H47.4755V75.054H69.3937L76.0984 82.3413L83.0293 75.054H100.44C106.622 75.054 109.627 77.4534 109.627 82.3781C109.627 87.392 106.52 89.8281 100.149 89.8281H93.3367V97.2782H82.7438L76.0338 89.9331L69.0598 97.2834H69.0544ZM87.9083 77.4376L79.5396 86.2055L87.9083 95.2568V77.4376ZM52.9093 88.2268V92.6475H66.3079L72.501 86.1267L66.5449 79.6479H52.9039V83.6906H64.87V88.2215L52.9093 88.2268ZM93.3367 79.6532V85.3129H100.375C102.529 85.3129 103.768 84.2419 103.768 82.3728C103.768 80.5877 102.616 79.6479 100.435 79.6479L93.3367 79.6532ZM190.477 97.2939H179.954V92.5162H190.434C191.218 92.6216 192.013 92.4217 192.647 91.9597L192.642 91.965C192.844 91.782 193.005 91.5602 193.116 91.3135C193.226 91.0669 193.283 90.8007 193.282 90.5316V90.5159V90.4476C193.283 90.1819 193.224 89.9193 193.109 89.6781C192.995 89.4369 192.828 89.2229 192.62 89.0511C192.063 88.6584 191.375 88.4824 190.692 88.5576H190.703L189.696 88.5261C184.774 88.4001 179.2 88.2531 179.2 81.6745C179.2 78.4719 181.257 75.054 187.014 75.054H197.876V79.7897H187.94C187.173 79.706 186.398 79.8564 185.722 80.2202L185.743 80.2097C185.477 80.3803 185.263 80.6176 185.124 80.8966C184.985 81.1756 184.925 81.486 184.951 81.7953V81.79V81.8478C184.951 82.2016 185.066 82.5463 185.279 82.8329C185.491 83.1195 185.791 83.3333 186.136 83.4439L186.147 83.4491C186.83 83.6544 187.545 83.7397 188.258 83.7011H188.242L191.198 83.7746C193.427 83.5578 195.654 84.2047 197.397 85.5754L197.381 85.5649C197.542 85.6909 197.682 85.8275 197.806 85.9797L197.812 85.985L197.876 94.4483C196.97 95.48 195.818 96.2788 194.521 96.7741C193.225 97.2694 191.823 97.4461 190.439 97.2887L190.477 97.2939ZM169.21 97.2939H158.59V92.5162H169.156C169.947 92.6171 170.747 92.4179 171.391 91.9597L171.38 91.965C171.582 91.7813 171.742 91.5593 171.851 91.3127C171.96 91.0661 172.017 90.8003 172.016 90.5316V90.5159V90.4791C172.016 90.2089 171.956 89.9419 171.842 89.6957C171.728 89.4494 171.561 89.2297 171.354 89.0511C170.786 88.658 170.09 88.4824 169.399 88.5576H169.409L168.408 88.5261C163.502 88.4001 157.933 88.2531 157.933 81.6745C157.933 78.4719 159.98 75.054 165.726 75.054H176.647V79.7897H166.652C165.89 79.7068 165.12 79.8573 164.45 80.2202L164.471 80.2097C164.188 80.3995 163.963 80.6603 163.82 80.9645C163.676 81.2686 163.62 81.6049 163.656 81.9378C163.693 82.2707 163.821 82.5879 164.027 82.8557C164.233 83.1236 164.509 83.3322 164.827 83.4596L164.837 83.4649C165.529 83.6717 166.253 83.757 166.975 83.7169H166.959L169.894 83.7904C172.135 83.5799 174.371 84.2276 176.13 85.5964L176.114 85.5807C176.706 86.2167 177.156 86.9655 177.436 87.7797C177.716 88.5939 177.82 89.4559 177.741 90.3111V90.2849C177.757 94.9208 174.876 97.2834 169.194 97.2834L169.21 97.2939ZM155.327 97.2939H137.125V75.0488H155.311V79.6427H142.564V83.6854H155.015V88.2163H142.564V92.637L155.327 92.658V97.2782V97.2939ZM165.936 59.0408H154.837L152.715 54.0846H141.395L139.338 59.0408H132.962C130.098 59.188 127.279 58.3084 125.035 56.568L125.062 56.5837C123.995 55.4366 123.186 54.0855 122.686 52.6166C122.185 51.1477 122.004 49.5931 122.153 48.0521L122.148 48.0941C122.009 46.5247 122.199 44.9443 122.707 43.4487C123.214 41.9532 124.028 40.5738 125.099 39.3945L125.088 39.405C126.219 38.441 127.542 37.7142 128.973 37.2698C130.404 36.8254 131.914 36.6729 133.409 36.8219L133.366 36.8167H138.643V41.5576H133.473C132.717 41.4626 131.948 41.5314 131.222 41.7592C130.496 41.987 129.83 42.3681 129.273 42.8754L129.278 42.8702C128.127 44.3077 127.568 46.1128 127.711 47.9314V47.9051C127.539 49.7735 128.078 51.6382 129.224 53.1448L129.208 53.1238C130.279 53.9768 131.649 54.3876 133.026 54.2684H133.005H135.45L143.156 36.7852H151.342L160.567 57.786V36.7852H168.866L178.441 52.2628V36.7852H184.041V59.0041H176.265L165.925 42.3189V59.0041L165.936 59.0408ZM147.093 40.5706L143.339 49.4329H150.862L147.093 40.5706ZM94.3222 59.0303H88.8723V36.8009H101.409C103.698 36.5694 106.008 36.9487 108.092 37.8982L108.012 37.8667C108.85 38.3186 109.549 38.981 110.035 39.7852C110.522 40.5893 110.779 41.5059 110.78 42.4396L110.769 42.8072V42.7914V42.9542C110.769 44.1667 110.411 45.3536 109.736 46.3725C109.062 47.3913 108.1 48.1987 106.967 48.6979L106.924 48.7137C108.006 49.1127 108.916 49.7532 109.611 50.5722L109.622 50.5827C110.39 51.8143 110.707 53.2636 110.521 54.6937L110.527 54.6622V59.0251H105.028L105.007 56.2215V55.8015C105.202 54.4306 104.891 53.0366 104.129 51.869L104.145 51.8953C103.575 51.4868 102.927 51.1925 102.239 51.0294C101.552 50.8662 100.837 50.8376 100.138 50.945L100.171 50.9398H94.3276V59.0251L94.3222 59.0303ZM94.3222 41.4264V46.3616H100.935C101.87 46.4604 102.813 46.2964 103.655 45.889L103.628 45.8995C103.973 45.6951 104.258 45.4076 104.456 45.0646C104.654 44.7217 104.759 44.3348 104.759 43.9412L104.754 43.7942V43.7995C104.781 43.4005 104.688 43.0025 104.486 42.6545C104.284 42.3065 103.982 42.0237 103.617 41.8411L103.606 41.8359C102.787 41.4931 101.894 41.349 101.005 41.4159H101.022L94.3222 41.4264ZM36.6134 59.0303H25.5412L23.4463 54.0741H12.0941L9.98307 59.0303H4.05924L13.8228 36.8009H21.9169L31.185 57.8385V36.8009H40.0761L47.2063 51.8743L53.7602 36.8009H62.8344V59.0198H57.2337L57.2229 41.6311L49.3227 59.0251H44.5405L36.6188 41.6049V59.0251L36.6134 59.0303ZM17.7433 40.5706L14.0328 49.4329H21.4753L17.7433 40.5706ZM119.461 59.0251H113.903V36.8009H119.466V59.0198L119.461 59.0251ZM85.0703 59.0251H66.9003V36.8009H85.1026V41.4211H72.3502V45.427H84.7956V49.9895H72.3394V54.4311H85.0918V59.0198L85.0703 59.0251Z" fill="#006FCF"/>
</svg>
