<svg width="202" height="132" viewBox="0 0 202 132" fill="none" xmlns="http://www.w3.org/2000/svg">
<rect x="2" y="2" width="198" height="128" rx="13" fill="white" stroke="#C4C4C4" stroke-width="4"/>
<path d="M101 80.25C104.779 80.25 108.404 78.7487 111.076 76.0763C113.749 73.4039 115.25 69.7793 115.25 66C115.25 62.2207 113.749 58.5961 111.076 55.9237C108.404 53.2513 104.779 51.75 101 51.75C97.2207 51.75 93.5961 53.2513 90.9237 55.9237C88.2513 58.5961 86.75 62.2207 86.75 66C86.75 69.7793 88.2513 73.4039 90.9237 76.0763C93.5961 78.7487 97.2207 80.25 101 80.25V80.25Z" fill="#106813"/>
<path d="M44 37.5C44 35.6103 44.7507 33.7981 46.0869 32.4619C47.4231 31.1257 49.2353 30.375 51.125 30.375H150.875C152.765 30.375 154.577 31.1257 155.913 32.4619C157.249 33.7981 158 35.6103 158 37.5V94.5C158 96.3897 157.249 98.2019 155.913 99.5381C154.577 100.874 152.765 101.625 150.875 101.625H51.125C49.2353 101.625 47.4231 100.874 46.0869 99.5381C44.7507 98.2019 44 96.3897 44 94.5V37.5ZM65.375 37.5C65.375 41.2793 63.8737 44.9039 61.2013 47.5763C58.5289 50.2487 54.9043 51.75 51.125 51.75V80.25C54.9043 80.25 58.5289 81.7513 61.2013 84.4237C63.8737 87.0961 65.375 90.7207 65.375 94.5H136.625C136.625 90.7207 138.126 87.0961 140.799 84.4237C143.471 81.7513 147.096 80.25 150.875 80.25V51.75C147.096 51.75 143.471 50.2487 140.799 47.5763C138.126 44.9039 136.625 41.2793 136.625 37.5H65.375Z" fill="#106813"/>
</svg>
