<svg width="506" height="486" viewBox="0 0 506 486" fill="none" xmlns="http://www.w3.org/2000/svg">
<path d="M6.85685 452.263H312.464C332.977 473.053 361.503 486 393.044 486C455.32 486 506 435.643 506 373.743C506 334.61 485.716 300.135 455.075 280.037V6.81555C455.075 3.05523 452.005 0 448.218 0H6.85794C3.0707 0.00701598 0 3.05873 0 6.81555V445.447C0 449.214 3.0707 452.259 6.85794 452.259L6.85685 452.263ZM492.284 373.744C492.284 428.126 447.762 472.37 393.044 472.37C338.325 472.37 293.805 428.124 293.805 373.744C293.805 319.365 338.327 275.118 393.044 275.118C447.764 275.118 492.284 319.362 492.284 373.744V373.744ZM393.044 261.496C330.765 261.496 280.089 311.85 280.089 373.744C280.089 397.927 287.899 420.289 301.043 438.635H13.7068V71.7796H161.26V157.565C161.26 163.146 164.426 168.106 169.742 170.821C172.333 172.144 175.178 172.796 178.001 172.796C181.658 172.796 185.293 171.705 188.304 169.569L225.195 143.38C226.48 142.475 228.594 142.475 229.882 143.38L266.773 169.569C272.11 173.358 279.388 173.838 285.325 170.832C290.637 168.106 293.806 163.157 293.806 157.572L293.803 71.7793H441.365V272.444C426.689 265.505 410.351 261.503 393.045 261.503L393.044 261.496ZM280.089 15.2495L279.047 158.703C277.904 159.282 276.114 159.447 274.738 158.472L237.847 132.283C231.758 127.965 223.291 127.979 217.237 132.283L180.346 158.472C178.945 159.457 177.18 159.282 174.981 157.556L174.977 15.2519C174.977 14.6801 174.78 14.161 174.649 13.6278H280.431C280.289 14.168 280.092 14.6801 280.092 15.2519L280.089 15.2495ZM441.358 58.149H293.805V15.2495C293.805 14.6777 293.607 14.1586 293.477 13.6254H441.373V58.1494L441.358 58.149ZM161.594 13.625C161.46 14.1652 161.262 14.6773 161.262 15.2491V58.1487H13.7085V13.6246L161.594 13.625ZM174.975 394.839C174.975 398.599 171.904 401.654 168.117 401.654L57.7815 401.651C53.9978 401.651 50.9236 398.599 50.9236 394.835C50.9236 391.075 53.9943 388.02 57.7815 388.02H168.117C171.904 388.023 174.975 391.075 174.975 394.839V394.839ZM174.975 352.661C174.975 356.422 171.904 359.477 168.117 359.477H57.7815C53.9978 359.477 50.9236 356.425 50.9236 352.661C50.9236 348.901 53.9943 345.846 57.7815 345.846H168.117C171.904 345.849 174.975 348.901 174.975 352.661ZM393.305 303.809C397.089 303.809 400.163 306.861 400.163 310.625V319.103C414.264 322.232 424.86 334.723 424.86 349.666C424.86 353.426 421.789 356.481 418.002 356.481C414.218 356.481 411.144 353.43 411.144 349.666C411.144 339.889 403.139 331.934 393.302 331.934C383.455 331.934 375.449 339.89 375.449 349.666C375.449 359.442 383.454 367.398 393.302 367.398C410.699 367.398 424.857 381.467 424.857 398.768C424.857 413.715 414.26 426.206 400.16 429.331V437.799C400.16 441.559 397.089 444.614 393.302 444.614C389.518 444.614 386.444 441.562 386.444 437.799V429.331C372.333 426.202 361.737 413.71 361.737 398.768C361.737 395.007 364.808 391.952 368.595 391.952C372.379 391.952 375.453 395.004 375.453 398.768C375.453 408.544 383.458 416.499 393.306 416.499C403.143 416.499 411.148 408.544 411.148 398.768C411.148 388.982 403.142 381.025 393.306 381.025C375.897 381.025 361.74 366.956 361.74 349.666C361.74 334.719 372.336 322.224 386.447 319.103V310.625C386.447 306.861 389.522 303.809 393.305 303.809V303.809Z" fill="#9E9E9E"/>
</svg>
