<svg width="202" height="132" viewBox="0 0 202 132" fill="none" xmlns="http://www.w3.org/2000/svg">
<rect x="2" y="2" width="198" height="128" rx="13" fill="white" stroke="#C4C4C4" stroke-width="4"/>
<path d="M109.393 100.383C128.276 100.383 143.584 85.0751 143.584 66.1917C143.584 47.3087 128.276 32.0001 109.393 32.0001H92.1916C73.3085 32.0001 58 47.3087 58 66.1917C58 85.0751 73.3085 100.383 92.1916 100.383H109.393Z" fill="#2656A0"/>
<path d="M92.0845 96C108.929 96 122.584 82.5681 122.584 66C122.584 49.4318 108.929 36 92.0845 36C75.2399 36 61.5845 49.4318 61.5845 66C61.5845 82.5681 75.2399 96 92.0845 96Z" fill="white"/>
<path d="M85.4446 46.8931C77.4721 49.6808 71.7534 57.2686 71.7534 66.1918C71.7534 75.1308 77.4922 82.7297 85.4865 85.5049L85.4446 46.8931" fill="#2656A0"/>
<path d="M112.63 66.1918C112.63 75.1308 106.892 82.7297 98.8975 85.5049L98.9394 46.8931C106.912 49.6808 112.63 57.2686 112.63 66.1918" fill="#2656A0"/>
</svg>
