<svg width="733" height="538" viewBox="0 0 733 538" fill="none" xmlns="http://www.w3.org/2000/svg">
<path d="M492.227 277.893C489.117 277.893 484.451 276.32 481.336 273.211L352.227 144.102C346.003 137.878 346.003 128.544 352.227 123.878C358.451 117.654 367.784 117.654 372.451 123.878L501.56 252.987C507.784 259.211 507.784 268.544 501.56 273.211C500.003 276.336 496.893 277.893 492.227 277.893Z" fill="black"/>
<path d="M363.107 277.893C359.998 277.893 355.331 276.32 352.216 273.211C345.992 267.003 345.992 257.654 352.216 252.987L481.326 123.878C487.55 117.654 496.883 117.654 501.55 123.878C507.774 130.102 507.774 139.435 501.55 144.102L372.44 273.211C370.888 276.336 367.774 277.893 363.107 277.893Z" fill="black"/>
<path d="M290 537.666C241.776 537.666 201.333 498.776 201.333 449.016C201.333 400.776 240.224 360.349 290 360.349C339.776 360.349 378.667 399.24 378.667 449.016C378.667 498.776 338.224 537.666 290 537.666ZM290 391.44C257.333 391.44 230.891 417.882 230.891 450.549C230.891 483.216 257.333 509.658 290 509.658C322.667 509.658 349.11 481.658 349.11 449.008C349.11 417.888 322.667 391.44 290 391.44Z" fill="black"/>
<path d="M532.667 537.666C484.443 537.666 444 498.776 444 449.016C444 400.776 482.891 360.349 532.667 360.349C580.907 360.349 621.333 399.24 621.333 449.016C619.776 498.776 580.891 537.666 532.667 537.666ZM532.667 391.44C500 391.44 473.557 417.882 473.557 450.549C473.557 483.216 500 509.658 532.667 509.658C565.349 509.658 591.776 483.216 591.776 450.549C590.224 417.888 563.776 391.44 532.667 391.44Z" fill="black"/>
<path d="M612 341.667H210.667C204.443 341.667 198.224 338.557 196.667 332.333L100.224 69.4399C98.6669 63.2159 83.1148 18.1066 17.7815 32.1066C10.0055 33.6639 2.22418 28.9972 0.672179 21.2159C-0.885155 13.4399 3.78151 5.65857 11.5628 4.10657C86.2295 -13.0028 122.006 33.6639 129.787 61.6639L223.12 313.664H602.68L697.587 80.3306H286.894C279.118 80.3306 271.336 74.1066 271.336 64.7732C271.336 55.4399 277.56 49.2159 286.894 49.2159H717.787C722.454 49.2159 727.12 52.3252 730.23 55.4399C733.339 60.1066 733.339 64.7732 731.787 69.4399L626.011 332.333C622.896 338.557 616.672 341.667 612.006 341.667H612Z" fill="black"/>
</svg>
