<svg width="496" height="129" viewBox="0 0 496 129" fill="none" xmlns="http://www.w3.org/2000/svg">
<path d="M185.12 60.5365C185.12 27.1875 143.682 0 92.5625 0C41.4479 0 0.0104167 27.1875 0.0104167 60.5365C0.0104167 61.401 0 63.7813 0 64.0833C0 99.4635 36.2188 128.12 92.5521 128.12C149.234 128.12 185.12 99.474 185.12 64.0885C185.12 62.8542 185.12 62.1406 185.12 60.5365Z" fill="#253E8B"/>
<path d="M181.578 60.5103C181.578 91.953 141.735 117.443 92.5837 117.443C43.4326 117.443 3.58887 91.953 3.58887 60.5103C3.58887 29.0623 43.4326 3.57275 92.5837 3.57275C141.735 3.57275 181.578 29.0623 181.578 60.5103Z" fill="#00AEEF"/>
<path d="M63.0316 42.5467C62.9848 42.6353 62.0993 43.5571 62.6723 44.2915C64.0785 46.0884 68.417 47.1144 72.8025 46.1301C75.4118 45.5467 78.7608 42.8853 82.0056 40.3071C85.516 37.5155 89.0056 34.7238 92.5108 33.6092C96.2191 32.4269 98.5993 32.9374 100.172 33.4113C101.896 33.9217 103.922 35.0571 107.157 37.4842C113.245 42.0624 137.73 63.4374 141.959 67.1301C145.37 65.5884 160.511 59.0728 181.089 54.5363C179.302 43.5676 172.625 33.5259 162.506 25.3071C148.401 31.2342 131.162 34.328 114.308 26.0936C114.219 26.0571 105.094 21.7394 96.0993 21.953C82.7191 22.2603 76.9275 28.0519 70.7973 34.1769L63.0316 42.5467Z" fill="white"/>
<path d="M140.964 69.453C140.677 69.1978 112.172 44.2551 105.719 39.4062C101.979 36.6041 99.9012 35.8853 97.7189 35.6093C96.5835 35.4583 95.0106 35.6718 93.9168 35.9739C90.9116 36.7916 86.9845 39.4166 83.495 42.1822C79.8856 45.0572 76.4793 47.7655 73.3231 48.4739C69.2866 49.3801 64.3595 48.3072 62.1095 46.7916C61.1981 46.177 60.5575 45.4687 60.2502 44.7499C59.4168 42.8228 60.9481 41.2812 61.2033 41.026L69.0679 32.5155C69.9845 31.6041 70.9012 30.6926 71.8439 29.7916C69.3075 30.1249 66.9585 30.7708 64.6772 31.4062C61.8283 32.2083 59.0887 32.9687 56.3127 32.9687C55.1564 32.9687 48.9533 31.953 47.7762 31.6301C40.6564 29.6822 34.4064 27.7864 25.0783 23.427C13.896 31.7551 6.41683 42.1614 4.25537 53.6249C5.86475 54.052 8.45329 54.8228 9.54183 55.0624C34.8439 60.6874 42.7241 66.4843 44.1564 67.6978C45.7033 65.9739 47.9377 64.8853 50.4325 64.8853C53.2293 64.8905 55.7554 66.2916 57.2866 68.4687C58.7345 67.3228 60.7345 66.3489 63.3179 66.3489C64.4897 66.3489 65.7085 66.5676 66.9377 66.9843C69.7918 67.9635 71.2658 69.8645 72.0314 71.5833C72.9897 71.151 74.1668 70.8333 75.5522 70.8385C76.9168 70.8385 78.3335 71.1458 79.7606 71.7655C84.4272 73.7655 85.1512 78.3489 84.7293 81.802C85.0627 81.7655 85.396 81.7499 85.7345 81.7499C91.2658 81.7551 95.7658 86.2499 95.7658 91.7864C95.7658 93.4999 95.3283 95.1093 94.5627 96.5208C96.0679 97.3697 99.9064 99.2812 103.276 98.8541C105.969 98.5155 106.99 97.5937 107.354 97.078C107.604 96.7239 107.87 96.3072 107.625 96.0103L100.485 88.078C100.485 88.078 99.3075 86.9635 99.6981 86.5364C100.099 86.0937 100.828 86.7291 101.339 87.1562C104.974 90.1926 109.412 94.7708 109.412 94.7708C109.485 94.8228 109.781 95.401 111.422 95.6978C112.833 95.9478 115.333 95.802 117.063 94.3801C117.5 94.0208 117.938 93.5728 118.302 93.1093C118.276 93.1301 118.25 93.1666 118.224 93.177C120.047 90.8385 118.021 88.4739 118.021 88.4739L109.682 79.1145C109.682 79.1145 108.495 78.0103 108.896 77.5676C109.261 77.1822 110.026 77.7655 110.552 78.1978C113.188 80.4062 116.917 84.1458 120.495 87.6458C121.188 88.1614 124.334 90.1041 128.49 87.3697C131.016 85.7135 131.521 83.6822 131.448 82.1458C131.276 80.1145 129.688 78.6666 129.688 78.6666L118.302 67.2187C118.302 67.2187 117.099 66.1926 117.526 65.6718C117.875 65.2343 118.656 65.8645 119.167 66.2916C122.792 69.328 132.615 78.3333 132.615 78.3333C132.755 78.4322 136.146 80.8489 140.339 78.177C141.839 77.2187 142.797 75.776 142.88 74.0937C143.021 71.1822 140.964 69.453 140.964 69.453Z" fill="white"/>
<path d="M85.7347 83.9686C83.9691 83.9478 82.0368 84.9946 81.7868 84.8436C81.6462 84.7498 81.891 84.0415 82.0576 83.63C82.2295 83.2238 84.5524 76.229 78.8858 73.7967C74.5472 71.9373 71.8962 74.0311 70.9847 74.979C70.7451 75.229 70.641 75.2082 70.6097 74.8905C70.5264 73.63 69.9587 70.2238 66.2191 69.078C60.8701 67.4425 57.4274 71.1769 56.5524 72.5259C56.1618 69.4738 53.5889 67.1092 50.4274 67.104C46.9951 67.104 44.2139 69.88 44.2139 73.3123C44.2087 76.7394 46.9899 79.5207 50.4222 79.5207C52.0889 79.5259 53.5993 78.8592 54.7139 77.7915C54.7503 77.8228 54.766 77.88 54.7451 77.9998C54.4847 79.5311 54.0055 85.1144 59.8493 87.3905C62.193 88.2967 64.1878 87.6196 65.8389 86.4634C66.3285 86.1144 66.4118 86.2603 66.3389 86.7238C66.1305 88.1613 66.3962 91.2342 70.7087 92.979C73.9847 94.3123 75.9274 92.9478 77.1983 91.7759C77.7503 91.2707 77.9014 91.3488 77.9274 92.13C78.0837 96.2863 81.5368 99.5832 85.7243 99.5884C90.042 99.5884 93.542 96.0988 93.542 91.7863C93.5472 87.4686 90.0524 84.0155 85.7347 83.9686Z" fill="white"/>
<path d="M85.7345 99.0313C81.8231 99.026 78.6408 95.9844 78.495 92.1146C78.4897 91.7813 78.4533 90.8958 77.7085 90.8958C77.396 90.8958 77.1304 91.0833 76.8231 91.3594C75.9637 92.1563 74.87 92.9688 73.271 92.9688C72.5418 92.9688 71.7554 92.7969 70.9272 92.4583C66.7918 90.7865 66.7345 87.9479 66.9012 86.8073C66.9481 86.5 66.9637 86.1823 66.7554 85.9375L66.5002 85.7135H66.245C66.0366 85.7135 65.8179 85.7969 65.5262 86.0052C64.3283 86.8438 63.1825 87.25 62.0158 87.25C61.3752 87.25 60.7189 87.1198 60.0575 86.8646C54.62 84.75 55.0522 79.6146 55.3179 78.0729C55.3543 77.7552 55.2762 77.5156 55.0783 77.3542L54.6929 77.0365L54.3335 77.3802C53.2762 78.401 51.8856 78.9635 50.4325 78.9635C47.3127 78.9583 44.7762 76.4271 44.7814 73.3125C44.7814 70.1927 47.3231 67.6667 50.4377 67.6667C53.2554 67.6667 55.6512 69.7865 56.0106 72.599L56.2033 74.1146L57.0366 72.8333C57.1304 72.6823 59.4116 69.2292 63.6095 69.2344C64.4064 69.2344 65.2293 69.3594 66.0627 69.6198C69.4064 70.6406 69.9741 73.6719 70.0627 74.9375C70.12 75.6719 70.646 75.7083 70.7502 75.7083C71.0366 75.7083 71.2502 75.526 71.4012 75.3646C72.0314 74.7083 73.4064 73.6146 75.5575 73.6146C76.5418 73.6146 77.5939 73.849 78.672 74.3125C83.9897 76.5938 81.5783 83.349 81.5522 83.4219C81.0939 84.5417 81.0731 85.0365 81.5054 85.3229L81.7137 85.4219H81.87C82.1095 85.4219 82.4064 85.3177 82.896 85.151C83.62 84.901 84.7137 84.526 85.7345 84.526H85.7397C89.7397 84.5729 92.995 87.8281 92.995 91.7865C92.9897 95.7813 89.7345 99.0313 85.7345 99.0313ZM142.068 66.4688C133.287 58.8073 112.995 41.1667 107.5 37.0365C104.36 34.6771 102.219 33.4271 100.339 32.8698C99.495 32.6146 98.3231 32.3229 96.8179 32.3229C95.422 32.3229 93.922 32.5729 92.3543 33.0729C88.8022 34.1979 85.2658 37.0104 81.8387 39.7292L81.6616 39.8698C78.4741 42.4063 75.1825 45.026 72.6877 45.5833C71.5991 45.8281 70.4793 45.9531 69.3647 45.9531C66.5679 45.9531 64.0627 45.1458 63.12 43.9479C62.9637 43.7448 63.0627 43.4271 63.4272 42.9635L63.4793 42.901L71.2033 34.5781C77.2502 28.526 82.9637 22.8177 96.12 22.5156C96.3335 22.5104 96.5575 22.5052 96.7762 22.5052C104.964 22.5104 113.146 26.1771 114.063 26.599C121.74 30.3438 129.667 32.2448 137.63 32.25C145.932 32.2552 154.5 30.1979 163.505 26.0521C162.5 25.2083 161.453 24.3854 160.375 23.5781C152.464 27.0052 144.927 28.7396 137.656 28.7396C130.224 28.7292 122.807 26.9479 115.599 23.4323C115.219 23.25 106.182 18.9896 96.7762 18.9844C96.5314 18.9844 96.2814 18.9896 96.0366 18.9948C84.9897 19.25 78.7658 23.1771 74.5783 26.6146C70.5106 26.7135 66.995 27.6927 63.8752 28.5677C61.0835 29.3385 58.6772 30.0104 56.3283 30.0104C55.3595 30.0104 53.62 29.9219 53.4637 29.9167C50.7658 29.8333 37.1564 26.5 26.3335 22.401C25.2293 23.1823 24.1668 23.9896 23.1304 24.8125C34.4377 29.4479 48.1981 33.0313 52.5418 33.3125C53.7502 33.3958 55.0366 33.5313 56.3231 33.5313C59.1981 33.5313 62.0627 32.7292 64.8387 31.9531C66.4741 31.4896 68.2814 30.9896 70.1877 30.625C69.6772 31.125 69.172 31.6302 68.6616 32.1354L60.8179 40.625C60.1981 41.25 58.8543 42.9167 59.7397 44.9635C60.0939 45.7917 60.8075 46.5833 61.8075 47.2552C63.672 48.5156 67.021 49.3646 70.1356 49.3698C71.3127 49.3698 72.4325 49.25 73.4585 49.0208C76.745 48.2813 80.1981 45.5313 83.8543 42.625C86.7658 40.3125 90.9012 37.375 94.0731 36.5104C94.9585 36.2708 96.047 36.1198 96.9168 36.1198C97.1772 36.125 97.4272 36.1302 97.6564 36.1667C99.7502 36.4271 101.771 37.1406 105.386 39.8542C111.828 44.6927 140.334 69.6302 140.615 69.8802C140.63 69.8958 142.448 71.4583 142.323 74.0677C142.255 75.5208 141.448 76.8125 140.047 77.7083C138.828 78.4792 137.573 78.8698 136.307 78.8698C134.401 78.8698 133.089 77.974 133 77.9167C132.896 77.8281 123.13 68.875 119.537 65.8646C118.964 65.3906 118.406 64.9635 117.844 64.9635C117.547 64.9635 117.281 65.0885 117.099 65.3177C116.537 66.0156 117.167 66.9792 117.917 67.6146L129.323 79.0781C129.339 79.0938 130.745 80.4115 130.896 82.1719C130.99 84.0729 130.078 85.6615 128.188 86.901C126.844 87.7865 125.479 88.2396 124.146 88.2396C122.396 88.2396 121.162 87.4375 120.891 87.25L119.255 85.6354C116.266 82.6927 113.177 79.651 110.917 77.7656C110.365 77.3073 109.776 76.8854 109.214 76.8854C108.938 76.8854 108.688 76.9844 108.495 77.1875C108.24 77.474 108.057 77.9896 108.703 78.8438C108.964 79.1927 109.276 79.4844 109.276 79.4844L117.604 88.8385C117.672 88.9219 119.318 90.8802 117.792 92.8281L117.495 93.1979C117.25 93.474 116.979 93.7292 116.724 93.9479C115.302 95.1146 113.406 95.2396 112.656 95.2396C112.255 95.2396 111.865 95.2031 111.531 95.1406C110.708 94.9948 110.156 94.7656 109.886 94.4479L109.787 94.3438C109.334 93.875 105.136 89.5885 101.662 86.6927C101.208 86.3073 100.636 85.8229 100.047 85.8229C99.7554 85.8229 99.495 85.9375 99.2918 86.1615C98.6043 86.9115 99.6356 88.0365 100.073 88.4531L107.177 96.2813C107.167 96.349 107.078 96.5104 106.906 96.7604C106.651 97.1094 105.792 97.974 103.214 98.2969C102.906 98.3385 102.589 98.3542 102.271 98.3542C99.6147 98.3542 96.7814 97.0625 95.3231 96.2917C95.9897 94.8854 96.3335 93.3385 96.3335 91.7917C96.3335 85.9427 91.5887 81.1875 85.745 81.1875C85.62 81.1875 85.4897 81.1875 85.3647 81.1927C85.5522 78.526 85.1772 73.474 79.9897 71.25C78.495 70.6042 77.0054 70.276 75.5627 70.276C74.4272 70.276 73.3387 70.4688 72.3179 70.8594C71.2397 68.7708 69.4585 67.25 67.1304 66.4583C65.8439 66.0156 64.5627 65.7865 63.3283 65.7865C61.1668 65.7865 59.1825 66.4219 57.4064 67.6823C55.7085 65.5729 53.1408 64.3177 50.4377 64.3177C48.0731 64.3177 45.797 65.2656 44.1147 66.9375C41.9012 65.25 33.1356 59.6771 9.66683 54.349C8.53141 54.0938 5.92725 53.3438 4.32829 52.8802C4.06266 54.1458 3.85954 55.4323 3.72412 56.7292C3.72412 56.7292 8.05225 57.7656 8.90641 57.9583C32.8804 63.2813 40.797 68.8177 42.1408 69.8646C41.6825 70.9531 41.4481 72.125 41.4481 73.3125C41.4429 78.2604 45.4741 82.2969 50.4272 82.3021C50.9845 82.3021 51.5366 82.25 52.0731 82.151C52.8231 85.7969 55.2085 88.5625 58.8491 89.9792C59.9168 90.3854 60.995 90.599 62.0522 90.599C62.7345 90.599 63.4272 90.5156 64.0991 90.3438C64.771 92.0521 66.2866 94.1823 69.672 95.5573C70.8595 96.0365 72.047 96.2865 73.1981 96.2865C74.1408 96.2865 75.0627 96.1198 75.9429 95.7969C77.5627 99.75 81.4272 102.365 85.7293 102.365C88.5835 102.37 91.3231 101.208 93.3231 99.151C95.0314 100.104 98.6408 101.823 102.287 101.828C102.761 101.828 103.203 101.792 103.646 101.74C107.271 101.286 108.953 99.8646 109.729 98.7656C109.87 98.5729 109.995 98.3698 110.104 98.1563C110.958 98.4063 111.896 98.6042 112.974 98.6094C114.953 98.6094 116.854 97.9323 118.771 96.5313C120.656 95.1771 121.995 93.224 122.188 91.5625C122.193 91.5365 122.198 91.5156 122.203 91.4896C122.834 91.6198 123.49 91.6875 124.141 91.6875C126.177 91.6875 128.177 91.0521 130.094 89.7969C133.787 87.3802 134.427 84.2188 134.37 82.1458C135.011 82.2813 135.672 82.349 136.328 82.349C138.24 82.349 140.12 81.776 141.906 80.6354C144.198 79.1719 145.573 76.9323 145.781 74.3229C145.927 72.5521 145.49 70.7656 144.552 69.2292C150.74 66.5625 164.88 61.4063 181.531 57.651C181.432 56.3594 181.245 55.0833 181.016 53.8125C160.87 58.2865 145.834 64.7917 142.068 66.4688Z" fill="#253E8B"/>
<path d="M482.224 45.9792C480.604 48.1302 478.286 49.2031 475.255 49.2031C472.229 49.2031 469.896 48.1302 468.266 45.9792C466.63 43.8281 465.818 40.7656 465.818 36.8021C465.818 32.8385 466.63 29.7865 468.266 27.6458C469.896 25.5104 472.229 24.4375 475.255 24.4375C478.286 24.4375 480.604 25.5104 482.224 27.6458C483.844 29.7865 484.661 32.8385 484.661 36.8021C484.661 40.7656 483.844 43.8281 482.224 45.9792ZM490.505 21.9635C487.161 17.7812 482.094 15.6875 475.286 15.6875C468.49 15.6875 463.417 17.7812 460.078 21.9635C456.734 26.151 455.062 31.0938 455.062 36.8021C455.062 42.6094 456.734 47.5729 460.078 51.7031C463.417 55.8177 468.49 57.8854 475.286 57.8854C482.094 57.8854 487.161 55.8177 490.505 51.7031C493.849 47.5729 495.516 42.6094 495.516 36.8021C495.516 31.0938 493.849 26.151 490.505 21.9635Z" fill="#253E8B"/>
<path d="M399.86 41.0885C399.792 44.5624 398.797 46.9583 396.886 48.2655C394.974 49.578 392.886 50.2395 390.62 50.2395C389.188 50.2395 387.974 49.8385 386.974 49.052C385.974 48.2603 385.479 46.9791 385.479 45.203C385.479 43.2187 386.292 41.7499 387.927 40.7968C388.901 40.2447 390.485 39.7655 392.703 39.3853L395.068 38.9478C396.245 38.7239 397.172 38.4843 397.849 38.2291C398.537 37.9791 399.198 37.6458 399.86 37.2291V41.0885ZM405.125 18.4635C401.735 16.7499 397.86 15.8801 393.495 15.8801C386.787 15.8801 382.052 17.6301 379.297 21.1249C377.563 23.3645 376.594 26.2135 376.365 29.6874H386.386C386.636 28.1562 387.125 26.9426 387.865 26.0468C388.901 24.8333 390.656 24.2239 393.141 24.2239C395.36 24.2239 397.042 24.526 398.188 25.1562C399.328 25.7708 399.901 26.8958 399.901 28.5208C399.901 29.8593 399.162 30.8385 397.662 31.4739C396.828 31.8385 395.448 32.1405 393.511 32.3853L389.958 32.8228C385.927 33.328 382.86 34.1822 380.787 35.3749C376.99 37.5624 375.099 41.0885 375.099 45.9739C375.099 49.7343 376.271 52.6458 378.63 54.6978C380.985 56.7499 383.979 57.6093 387.594 57.7812C410.255 58.7916 410 45.8385 410.208 43.1405V28.2291C410.208 23.4478 408.511 20.1926 405.125 18.4635Z" fill="#253E8B"/>
<path d="M353.448 24.7603C356.042 24.7603 357.943 25.5623 359.172 27.1613C360.016 28.3436 360.542 29.6821 360.745 31.1613H371.927C371.313 25.5207 369.339 21.5832 366.005 19.3488C362.662 17.13 358.386 16.0103 353.151 16.0103C346.99 16.0103 342.156 17.9009 338.662 21.6769C335.162 25.4582 333.412 30.7394 333.412 37.5311C333.412 43.5415 334.995 48.4425 338.162 52.2238C341.328 55.9946 346.271 57.8853 352.99 57.8853C359.714 57.8853 364.787 55.6248 368.208 51.0936C370.349 48.2863 371.552 45.3071 371.807 42.1613H360.667C360.438 44.2394 359.787 45.9373 358.708 47.2446C357.636 48.5467 355.823 49.203 353.261 49.203C349.656 49.203 347.198 47.5623 345.891 44.2603C345.177 42.505 344.818 40.1769 344.818 37.2759C344.818 34.2342 345.177 31.7967 345.891 29.9582C347.25 26.4998 349.771 24.7603 353.448 24.7603Z" fill="#253E8B"/>
<path d="M330.417 16.0103C307.453 16.0103 308.813 36.3436 308.813 36.3436V56.9946H319.229V37.6248C319.229 34.453 319.63 32.0988 320.427 30.5728C321.854 27.8644 324.651 26.505 328.818 26.505C329.13 26.505 329.542 26.5207 330.052 26.5467C330.557 26.5675 331.136 26.6144 331.797 26.6925V16.0884C331.333 16.0571 331.037 16.0467 330.906 16.0311C330.771 16.0207 330.609 16.0103 330.417 16.0103Z" fill="#253E8B"/>
<path d="M278.13 26.8019C279.599 25.2967 281.656 24.5415 284.307 24.5415C286.755 24.5415 288.797 25.2498 290.448 26.6769C292.094 28.0936 293.016 30.1821 293.203 32.9269H275.375C275.745 30.3488 276.667 28.3123 278.13 26.8019ZM292.136 46.203C291.698 46.828 291.229 47.3644 290.708 47.7811C289.24 48.9946 287.24 49.3592 284.886 49.3592C282.656 49.3592 280.917 49.0207 279.339 48.0259C276.74 46.4321 275.276 43.729 275.12 39.755H303.953C303.995 36.3384 303.88 33.7238 303.604 31.9009C303.125 28.8019 302.073 26.0675 300.453 23.7186C298.656 21.0519 296.37 19.0988 293.61 17.8592C290.854 16.6248 287.755 16.0103 284.307 16.0103C278.5 16.0103 273.787 17.8384 270.151 21.4946C266.516 25.1561 264.693 30.4113 264.693 37.2655C264.693 44.5884 266.708 49.8696 270.74 53.1144C274.766 56.3592 279.417 57.9894 284.682 57.9894C291.063 57.9894 296.026 56.0623 299.573 52.2134C301.485 50.1873 302.682 48.1821 303.188 46.203H292.136Z" fill="#253E8B"/>
<path d="M260.511 56.9894H250.99V33.0207C250.99 30.8332 250.271 25.6248 243.99 25.6248C239.802 25.6248 236.776 28.6457 236.776 33.0207V56.9894H227.25V33.0207C227.25 30.8332 226.599 25.6248 220.323 25.6248C216.063 25.6248 213.104 28.6457 213.104 33.0207V56.9894H203.583V33.2498C203.583 23.354 210.146 15.8696 220.323 15.8696C225.375 15.8696 229.485 17.9946 232.156 21.3957C234.969 17.9946 239.151 15.8696 243.99 15.8696C254.38 15.8696 260.511 23.0519 260.511 33.2498V56.9894Z" fill="#253E8B"/>
<path d="M439.464 46.0623C437.943 48.2446 435.708 49.3332 432.781 49.3332C429.849 49.3332 427.667 48.2342 426.229 46.0467C424.792 43.8488 424.073 40.6613 424.073 37.005C424.073 33.6144 424.776 30.7759 426.193 28.4894C427.604 26.203 429.823 25.0571 432.854 25.0571C434.839 25.0571 436.583 25.6821 438.089 26.9425C440.531 29.0259 441.755 32.7603 441.755 37.604C441.755 41.0623 440.99 43.8853 439.464 46.0623ZM451.964 3.49463C451.964 3.49463 441.464 2.37484 441.464 10.8071L441.458 21.9686C440.297 20.104 438.787 18.6405 436.922 17.5936C435.063 16.5415 432.932 16.0103 430.526 16.0103C425.323 16.0103 421.172 17.9478 418.057 21.8228C414.943 25.6978 413.396 31.2811 413.396 38.0363C413.396 43.8957 414.974 48.6978 418.13 52.4425C421.292 56.1769 427.49 57.8175 432.99 57.8175C452.177 57.8175 451.953 41.3592 451.953 41.3592L451.964 3.49463Z" fill="#253E8B"/>
<path d="M231.88 88.9321C231.88 85.005 231.115 81.9842 229.578 79.8644C228.047 77.755 225.854 76.6873 222.99 76.6873C220.24 76.6873 218.089 77.755 216.552 79.8644C215.13 81.7811 214.417 84.8123 214.417 88.9321C214.417 92.7759 215.177 95.6353 216.714 97.5519C218.24 99.6717 220.443 100.729 223.297 100.729C225.953 100.729 228.047 99.6717 229.578 97.5519C231.115 95.4373 231.88 92.5728 231.88 88.9321ZM214.417 117.13C214.417 118.536 213.906 119.75 212.875 120.755C211.859 121.765 210.635 122.271 209.203 122.271H204V86.0571C204 79.0155 206.37 74.6092 210.276 71.6248C212.859 69.6561 216.703 67.7759 223.911 67.7759C228.776 67.7759 234.474 69.6665 237.552 73.4165C241.005 77.6353 242.443 82.3384 242.443 88.479C242.443 94.8332 240.911 99.9582 237.854 103.901C234.792 107.734 230.854 109.64 226.052 109.64C223.5 109.64 221.255 109.187 219.318 108.286C217.266 107.276 215.641 105.713 214.417 103.594V117.13Z" fill="#00AEEF"/>
<path d="M294.333 88.9373C294.333 95.8852 296.344 99.7342 300.354 100.495C304.359 101.239 307.323 100.307 309.229 97.6925C310.135 96.5936 310.781 94.8488 311.188 92.4894C311.583 90.1248 311.615 87.7811 311.26 85.4686C310.917 83.1457 310.083 81.0832 308.776 79.2707C307.479 77.4634 305.568 76.5519 303.063 76.5519C299.651 76.5519 297.349 77.8175 296.141 80.3227C294.932 82.8436 294.333 85.7134 294.333 88.9373ZM311.49 106.302V103.745C309.688 106.568 307.245 108.318 304.188 109.026C301.13 109.729 298.094 109.479 295.094 108.265C292.078 107.062 289.495 104.823 287.339 101.552C285.182 98.2707 284.109 93.9686 284.109 88.63C284.109 82.3957 285.536 77.3332 288.391 73.4582C291.25 69.5832 295.844 67.8123 302.161 67.6404C308.385 67.4738 312.005 68.8852 315.552 71.5675C319.427 74.5102 321.719 79.0207 321.719 86.0675V107.37C321.734 114.146 317.005 126.708 302.161 125.646C292.964 124.979 287.859 121.203 285.01 112.656H295.995C296.797 114.062 298.021 115.14 299.682 115.89C301.328 116.656 302.995 116.854 304.635 116.5C306.292 116.146 307.797 115.161 309.161 113.557C310.51 111.948 311.286 109.526 311.49 106.302Z" fill="#00AEEF"/>
<path d="M269.927 93.1405C269.859 96.6144 268.864 99.005 266.958 100.318C265.047 101.625 262.958 102.281 260.693 102.281C259.255 102.281 258.042 101.885 257.047 101.099C256.047 100.312 255.547 99.0259 255.547 97.2498C255.547 95.2655 256.364 93.7967 258 92.8488C258.974 92.2915 260.557 91.8123 262.771 91.4321L265.135 90.9946C266.318 90.7707 267.245 90.5311 267.917 90.2759C268.604 90.0259 269.265 89.6978 269.927 89.2811V93.1405ZM275.193 70.5155C271.802 68.8019 267.927 67.9321 263.568 67.9321C256.854 67.9321 252.125 69.6821 249.364 73.1769C247.635 75.4113 246.661 78.2603 246.437 81.7394H256.463C256.708 80.203 257.198 78.9894 257.937 78.0936C258.974 76.88 260.729 76.2759 263.208 76.2759C265.437 76.2759 267.114 76.578 268.255 77.203C269.396 77.8228 269.974 78.9478 269.974 80.5728C269.974 81.9061 269.229 82.8905 267.734 83.5259C266.906 83.8905 265.521 84.1925 263.583 84.4373L260.031 84.8696C256 85.38 252.932 86.2342 250.859 87.4217C247.062 89.6092 245.167 93.1405 245.167 98.0207C245.167 101.781 246.344 104.693 248.703 106.745C251.057 108.792 254.052 109.661 257.667 109.828C280.318 110.838 280.068 97.88 280.276 95.1873V80.2759C280.276 75.4946 278.583 72.2446 275.193 70.5155Z" fill="#00AEEF"/>
<path d="M352.854 97.802C351.234 99.9583 348.911 101.031 345.885 101.031C342.854 101.031 340.521 99.9583 338.896 97.802C337.255 95.6562 336.443 92.5989 336.443 88.6353C336.443 84.6718 337.255 81.6197 338.896 79.4791C340.521 77.3385 342.854 76.276 345.885 76.276C348.911 76.276 351.234 77.3385 352.854 79.4791C354.474 81.6197 355.286 84.6718 355.286 88.6353C355.286 92.5989 354.474 95.6562 352.854 97.802ZM361.135 73.7968C357.792 69.6093 352.719 67.5208 345.911 67.5208C339.12 67.5208 334.042 69.6093 330.703 73.7968C327.359 77.9791 325.688 82.9218 325.688 88.6353C325.688 94.4426 327.359 99.401 330.703 103.531C334.042 107.646 339.12 109.713 345.911 109.713C352.719 109.713 357.792 107.646 361.135 103.531C364.474 99.401 366.135 94.4426 366.135 88.6353C366.135 82.9218 364.474 77.9791 361.135 73.7968Z" fill="#00AEEF"/>
</svg>
