<svg width="765" height="434" viewBox="0 0 765 434" fill="none" xmlns="http://www.w3.org/2000/svg">
<path d="M549 204H763V214H549V204Z" fill="#9E9E9E"/>
<path d="M735.659 234C734.529 234 733.414 233.473 732.698 232.486C731.517 230.847 731.876 228.553 733.513 227.369L756.771 210.442C757.367 210.01 757.706 209.518 757.706 209.091C757.708 208.667 757.37 208.171 756.774 207.736L733.493 190.624C731.869 189.43 731.515 187.134 732.704 185.502C733.89 183.868 736.166 183.512 737.803 184.707L761.084 201.818C763.582 203.652 765.008 206.309 765 209.107C764.997 211.905 763.554 214.554 761.051 216.377L737.793 233.304C737.151 233.772 736.403 234 735.659 234V234Z" fill="#9E9E9E"/>
<path fill-rule="evenodd" clip-rule="evenodd" d="M0 22.3693C0 10.0152 10.0208 0 22.36 0H649.64C661.989 0 672 10.0677 672 22.3693V190.5H657.065V228H672V410.689C672 423.043 661.979 433.059 649.64 433.059H22.36C10.0111 433.059 0 422.991 0 410.689V22.3693ZM14.932 67.1973H657.065V403.171C657.065 411.436 650.393 418.135 642.139 418.135H29.8587C21.6139 418.135 14.932 411.437 14.932 403.171V67.1973ZM26.1351 44.796C32.3173 44.796 37.3329 39.7804 37.3329 33.5981C37.3329 27.4107 32.3173 22.3951 26.1351 22.3951C19.9476 22.3951 14.932 27.4107 14.932 33.5981C14.932 39.7804 19.9476 44.796 26.1351 44.796ZM63.4684 44.796C69.6507 44.796 74.6663 39.7804 74.6663 33.5981C74.6663 27.4107 69.6507 22.3951 63.4684 22.3951C57.2809 22.3951 52.2653 27.4107 52.2653 33.5981C52.2653 39.7804 57.2809 44.796 63.4684 44.796ZM100.802 44.796C106.984 44.796 112 39.7804 112 33.5981C112 27.4107 106.984 22.3951 100.802 22.3951C94.6143 22.3951 89.5987 27.4107 89.5987 33.5981C89.5987 39.7804 94.6143 44.796 100.802 44.796ZM141.864 22.3947C141.864 18.2749 145.193 14.9311 149.328 14.9311H634.675C638.794 14.9311 642.138 18.2436 642.138 22.3947V44.796C642.138 48.9211 638.81 52.2648 634.675 52.2648H149.328C145.208 52.2648 141.864 48.9523 141.864 44.796V22.3947Z" fill="#9E9E9E"/>
</svg>
