<svg width="202" height="132" viewBox="0 0 202 132" fill="none" xmlns="http://www.w3.org/2000/svg">
<rect x="2" y="2" width="198" height="128" rx="13" fill="white" stroke="#C4C4C4" stroke-width="4"/>
<path d="M103.233 58.4269C103.159 64.2777 108.445 67.5425 112.426 69.4837C116.517 71.4753 117.891 72.7526 117.875 74.5338C117.845 77.2595 114.612 78.4626 111.587 78.5094C106.309 78.5912 103.24 77.0838 100.801 75.9437L98.8997 84.8443C101.347 85.9727 105.88 86.9568 110.579 87C121.612 87 128.829 81.5516 128.868 73.1042C128.911 62.3831 114.046 61.7897 114.148 56.9977C114.183 55.5447 115.569 53.9941 118.605 53.5999C120.108 53.4007 124.258 53.2483 128.962 55.4157L130.809 46.8041C128.279 45.8825 125.027 45 120.979 45C110.595 45 103.292 50.5226 103.233 58.4269V58.4269ZM148.551 45.7418C146.536 45.7418 144.838 46.9174 144.081 48.7215L128.322 86.3675H139.346L141.54 80.3018H155.011L156.284 86.3675H166L157.521 45.7418H148.551V45.7418ZM150.093 56.7163L153.274 71.9717H144.561L150.093 56.7163V56.7163ZM89.8667 45.7423L81.177 86.367H91.6821L100.368 45.7413H89.8667V45.7423ZM74.3261 45.7413L63.3919 73.3932L58.9689 49.8819C58.4499 47.2573 56.4004 45.7418 54.1243 45.7418H36.2504L36 46.9215C39.6695 47.7181 43.8386 49.003 46.3645 50.3778C47.9102 51.2176 48.351 51.9517 48.8588 53.9474L57.2362 86.3675H68.3375L85.3573 45.7418H74.3261" fill="url(#paint0_linear_602_12)"/>
<defs>
<linearGradient id="paint0_linear_602_12" x1="95.7662" y1="87.8425" x2="96.9825" y2="44.7079" gradientUnits="userSpaceOnUse">
<stop stop-color="#222357"/>
<stop offset="1" stop-color="#254AA5"/>
</linearGradient>
</defs>
</svg>
