<?xml version="1.0" encoding="UTF-8"?><svg xmlns="http://www.w3.org/2000/svg" viewBox="0 0 217.93 217.83"><defs><style>.d{fill:#182037;}</style></defs><g id="a"/><g id="b"><g id="c"><g><path class="d" d="M109.76,0C48.89-.11,.31,48.23,0,108.76c-.29,59.44,48.78,109.13,109,109.08,58.57-.03,108.59-46.97,108.93-108.87C218,48.97,169.47,.11,109.76,0Zm29.2,178.94c-.63,8.05-3.44,15.57-5.66,23.23-.55,1.87-1.92,2.21-3.58,2.55-32.75,6.45-61.64-1.26-86.62-23.44-2.08-1.1-2.94-2.37-1.63-4.84,2.6-4.89,4.08-10.29,7.28-14.89,5.9-8.52,14.16-12.66,24.34-11.97,11.57,.79,21.49-2.79,30.57-9.52,3.29-2.42,6.5-4.94,9.82-7.31,2.68-1.9,5.23-1.84,7.98,.27,12.02,9.21,16.92,21.89,18.02,36.42,.24,3.15,.73,6.39-.52,9.49ZM102.77,47.26c6.19-2.26,12.18-1.21,17.55,2.06,12.49,7.63,21.1,18.21,20.95,33.49-.08,9.53-4.63,17.26-13.79,21.5-4.6,2.56-9.63,2.71-14.47,1.6-11.37-2.61-20.73-8.87-27.36-18.34-10.5-14.95-1.61-35.38,17.12-40.31Zm40.3,153.31c2.6-11.36,3.29-22.68,2.86-34.07-.53-14.08-4.53-26.97-13.18-38.26-3.34-4.36-5.55-9.24-6.63-14.61-.08-.32-.15-.66-.21-.98,.27,.13,.56,.24,.84,.35,12.73,7.03,26.04,12.39,40.47,14.79,7.79,1.29,9.58,.32,11.81-7.34,2.13-7.29,1.05-14.47-1.18-21.55-1.63-5.16-3.86-10.08-6.55-14.78-9.58-16.78-21.63-31.58-36.54-43.86-13.44-11.05-28.44-13.44-44.62-6.26-5.37,2.37-10.42,5.24-15,8.92-15.78,12.6-21.21,28.79-16.44,48.33,5.21,21.29,2.23,28.5-16.84,39.51-7.23,4.18-13.95,9.07-20.07,14.76-.82,.77-1.44,1.92-2.77,1.98C-1,104.92,15.71,41.02,69.45,17.65c52.1-22.68,112.55,3.11,131.69,56.52,19.33,53.93-9.84,109.45-58.07,126.4Zm4.84-84.17c6.81-8.19,12.39-16.97,16.94-26.87,4.89,9.6,6.53,19.33,5.89,29.58-.18,2.84-1.39,3.06-3.6,2.45-6.31-1.71-12.61-3.39-19.23-5.16Z"/><path class="d" d="M126.05,71.27c-1.87,3.84-4.73,5.57-8.47,5.16-6.77-.73-13.52-1.79-21.44-2.87,5.39-2.55,7.6-6.11,8.6-10.82,1.06-4.98,3.39-6.18,10.87-6.26-3.36,3.39-5.97,6.92-2.73,11.34,3.24,4.42,7.79,5.07,13.16,3.45Z"/></g></g></g></svg>