<?xml version="1.0" encoding="UTF-8"?><svg xmlns="http://www.w3.org/2000/svg" viewBox="0 0 460.03 154.15"><defs><style>.d{fill:#f5c600;}.e{fill:#182037;}.f{fill:#eb5f16;}</style></defs><g id="a"/><g id="b"><g id="c"><g><polygon class="d" points="113.35 61.89 100.82 84.12 115.82 88.53 122.7 88.53 117.94 62.59 113.35 61.89"/><rect class="f" x="106.56" y="61.7" width="7.42" height="23.96" transform="translate(58.07 -48.24) rotate(33.07)"/><g><path class="e" d="M76.69,1.94C34.16,1.87,.22,35.64,0,77.93c-.2,41.53,34.08,76.25,76.16,76.22,40.93-.02,75.88-32.82,76.11-76.07,.05-41.92-33.86-76.06-75.58-76.14Zm20.4,125.03c-.44,5.62-2.4,10.88-3.96,16.23-.38,1.31-1.34,1.54-2.5,1.78-22.88,4.51-43.07-.88-60.53-16.38-1.45-.77-2.05-1.66-1.14-3.38,1.81-3.42,2.85-7.19,5.08-10.4,4.13-5.95,9.9-8.85,17.01-8.36,8.08,.55,15.01-1.95,21.36-6.65,2.3-1.69,4.54-3.45,6.86-5.11,1.87-1.33,3.65-1.28,5.58,.19,8.4,6.44,11.82,15.29,12.59,25.45,.17,2.2,.51,4.46-.36,6.63Zm-25.28-92.01c4.33-1.58,8.51-.85,12.26,1.44,8.72,5.33,14.74,12.73,14.64,23.4-.06,6.66-3.23,12.06-9.64,15.02-3.21,1.79-6.73,1.89-10.11,1.12-7.95-1.83-14.48-6.2-19.12-12.82-7.34-10.45-1.13-24.72,11.96-28.17Zm28.16,107.12c1.81-7.93,2.3-15.85,1.99-23.8-.37-9.84-3.17-18.85-9.21-26.74-2.33-3.04-3.88-6.46-4.63-10.21-.06-.23-.1-.46-.15-.69,.19,.09,.39,.17,.59,.25,8.89,4.91,18.19,8.66,28.28,10.34,5.44,.9,6.7,.23,8.25-5.13,1.49-5.09,.73-10.11-.82-15.06-1.14-3.61-2.69-7.04-4.58-10.32-6.7-11.72-15.11-22.07-25.53-30.65-9.39-7.72-19.87-9.39-31.18-4.37-3.75,1.66-7.28,3.66-10.48,6.23-11.02,8.8-14.82,20.12-11.49,33.77,3.64,14.88,1.56,19.92-11.77,27.6-5.05,2.92-9.75,6.33-14.02,10.31-.57,.54-1,1.34-1.94,1.39C-.7,75.25,10.98,30.61,48.52,14.27c36.41-15.85,78.64,2.18,92.02,39.49,13.5,37.68-6.88,76.47-40.58,88.32Zm3.38-58.81c4.76-5.73,8.66-11.86,11.83-18.78,3.42,6.71,4.56,13.5,4.11,20.67-.12,1.98-.97,2.14-2.51,1.71-4.41-1.19-8.81-2.37-13.44-3.61Z"/><path class="e" d="M88.07,51.74c-1.31,2.68-3.3,3.89-5.92,3.61-4.73-.51-9.45-1.25-14.98-2.01,3.76-1.78,5.31-4.27,6.01-7.56,.74-3.48,2.37-4.32,7.6-4.37-2.34,2.37-4.17,4.84-1.9,7.92s5.44,3.54,9.2,2.41Z"/></g><g><path class="e" d="M203.9,62.28c-2.88,2.96-6.64,4.43-11.26,4.43s-8.36-1.47-11.21-4.43c-2.85-2.95-4.27-6.78-4.27-11.47s1.42-8.52,4.27-11.48c2.85-2.95,6.58-4.43,11.21-4.43s8.38,1.48,11.26,4.43c2.88,2.96,4.32,6.78,4.32,11.48s-1.44,8.52-4.32,11.47Zm-26.74,30.31v-22.78h.21c1.71,2.7,4.1,4.84,7.16,6.4,3.05,1.57,6.54,2.35,10.46,2.35,6.9,0,12.97-2.44,18.2-7.31s7.84-11.69,7.84-20.44c0-8.04-2.65-14.68-7.95-19.91s-12.12-7.85-20.44-7.85-15.2,2.58-20.39,7.74c-5.2,5.16-7.79,11.98-7.79,20.44v41.36h12.7Z"/><path class="e" d="M264.69,24.44v27.43c0,4.91-1.19,8.62-3.58,11.11-2.38,2.49-5.64,3.73-9.76,3.73s-7.39-1.24-9.77-3.73c-2.39-2.49-3.58-6.2-3.58-11.11V24.44h-12.7v27.43c0,8.69,2.35,15.31,7.05,19.86,4.69,4.55,11.03,6.83,19,6.83s14.3-2.29,19-6.88c4.69-4.59,7.04-11.19,7.04-19.81V24.44h-12.7Z"/><path class="e" d="M331.73,23.37v-.1c0-7.54-2.09-13.31-6.25-17.3-4.16-3.98-9.77-5.97-16.81-5.97s-12.76,1.97-16.92,5.92c-4.16,3.95-6.25,9.73-6.25,17.35v53.9h12.71V43.34h27.11v-11.53h-27.11v-8.54c0-7.62,3.48-11.42,10.46-11.42s10.46,3.8,10.46,11.42v.1h12.6Z"/><path class="e" d="M387.02,24.44v52.73h12.7V24.44h-12.7Zm12.33-20.81c-1.6-1.64-3.62-2.46-6.03-2.46s-4.35,.82-5.98,2.46c-1.64,1.63-2.46,3.66-2.46,6.08s.82,4.34,2.46,5.98c1.63,1.64,3.63,2.45,5.98,2.45s4.43-.81,6.03-2.45c1.6-1.64,2.4-3.63,2.4-5.98s-.8-4.45-2.4-6.08Zm-18.95,19.74v-.1c0-7.54-2.08-13.31-6.24-17.3-4.17-3.98-9.77-5.97-16.82-5.97s-12.75,1.97-16.92,5.92c-4.16,3.95-6.24,9.73-6.24,17.35v53.9h12.7V43.34h27.12v-11.53h-27.12v-8.54c0-7.62,3.49-11.42,10.46-11.42s10.46,3.8,10.46,11.42v.1h12.6Z"/><path class="e" d="M452.99,29.89c-4.7-4.56-11.04-6.84-19-6.84s-14.31,2.3-19.01,6.89c-4.69,4.59-7.04,11.19-7.04,19.8v27.43h12.7v-27.43c0-4.91,1.19-8.61,3.58-11.1,2.38-2.49,5.64-3.74,9.77-3.74s7.38,1.25,9.76,3.74c2.39,2.49,3.58,6.19,3.58,11.1v27.43h12.7v-27.43c0-8.68-2.35-15.3-7.04-19.85Z"/></g><g><path class="e" d="M191.71,151.38c-8.1,0-14.81-2.57-19.95-7.64-5.14-5.07-7.74-11.6-7.74-19.41s2.61-14.34,7.74-19.41c5.14-5.07,11.85-7.64,19.95-7.64,6.58,0,12.31,1.77,17.04,5.25,4.48,3.3,7.55,7.67,9.15,12.99h-5.85c-1.5-3.9-4.02-7.05-7.52-9.38-3.62-2.42-7.94-3.64-12.83-3.64-6.43,0-11.73,2.08-15.76,6.19-4.03,4.1-6.07,9.37-6.07,15.65s2.04,11.55,6.07,15.65c4.03,4.11,9.33,6.19,15.76,6.19,4.89,0,9.2-1.22,12.83-3.64,3.5-2.33,6.02-5.49,7.52-9.38h5.85c-1.6,5.32-4.67,9.69-9.15,12.99-4.73,3.49-10.46,5.25-17.04,5.25Z"/><path class="e" d="M250.74,151.38c-7.46,0-13.83-2.5-18.94-7.43-5.1-4.93-7.69-11.53-7.69-19.62s2.61-14.34,7.74-19.41c5.14-5.07,11.85-7.64,19.95-7.64s14.79,2.55,19.9,7.59c5.1,5.04,7.69,11.69,7.69,19.78v25.35h-5.22v-12.49h-1.38l-.18,.43c-1.71,4.11-4.53,7.42-8.37,9.82-3.86,2.41-8.4,3.63-13.51,3.63Zm1.07-48.89c-6.43,0-11.73,2.08-15.76,6.19-4.03,4.1-6.07,9.37-6.07,15.65s2.04,11.55,6.07,15.65c4.03,4.11,9.33,6.19,15.76,6.19s11.73-2.08,15.76-6.19c4.03-4.1,6.07-9.37,6.07-15.65s-2.04-11.54-6.07-15.65c-4.03-4.11-9.34-6.19-15.76-6.19Z"/><path class="e" d="M308.49,151.38c-6.22,0-11.28-1.48-15.05-4.39-3.52-2.72-5.46-6.23-5.78-10.43h5.88c.31,2.83,1.74,5.15,4.25,6.92,2.63,1.86,6.2,2.8,10.6,2.8,4.69,0,8.4-.98,11.04-2.92,2.71-1.99,4.08-4.66,4.08-7.95,0-2.38-.97-4.23-2.87-5.5-1.78-1.19-4-2.03-6.6-2.51l-16.63-3.04c-2.44-.44-4.49-1.66-6.08-3.62-1.6-1.96-2.41-4.6-2.41-7.83,0-4.66,1.71-8.34,5.24-11.25,3.52-2.9,8.31-4.38,14.23-4.38s10.59,1.44,14.08,4.27c3.26,2.65,5.06,6.05,5.36,10.12h-5.67c-.31-2.62-1.64-4.81-3.96-6.53-2.46-1.83-5.73-2.75-9.7-2.75-4.19,0-7.56,.9-10.02,2.67-2.53,1.82-3.81,4.3-3.81,7.36,0,2.66,1.37,4.61,4.07,5.81,2.49,1.1,5.48,1.91,8.91,2.41l10.19,1.48c3.25,.47,6.02,1.82,8.23,4.01,2.19,2.16,3.3,5.29,3.3,9.31,0,4.66-1.85,8.39-5.66,11.41-3.8,3.02-8.92,4.55-15.2,4.55Z"/><path class="e" d="M363.14,151.38c-8.1,0-14.81-2.57-19.95-7.64-5.14-5.07-7.74-11.6-7.74-19.41s2.61-14.34,7.74-19.41c5.14-5.07,11.85-7.64,19.95-7.64s14.68,2.57,19.79,7.64c5.1,5.07,7.69,11.6,7.69,19.41v1.65h-49.27l.07,.76c.51,5.71,2.78,10.42,6.74,14.01,3.96,3.59,9,5.41,14.99,5.41,8.61,0,14.85-3.2,18.55-9.5h6.31c-2.02,4.31-5.14,7.82-9.28,10.45-4.45,2.83-9.7,4.27-15.58,4.27Zm0-48.89c-5.69,0-10.53,1.62-14.38,4.8-3.85,3.19-6.25,7.45-7.13,12.65v1.03h42.91v-1.03c-.89-5.2-3.29-9.45-7.14-12.64-3.85-3.19-8.65-4.8-14.27-4.8Z"/></g><polygon class="e" points="105.77 86.74 119.71 65.51 120.88 67.67 107.51 88.53 105.77 86.74"/></g></g></g></svg>